<svg id="Group_23" data-name="Group 23" xmlns="http://www.w3.org/2000/svg" width="42.851" height="42.852" viewBox="0 0 42.851 42.852">
  <rect id="Rectangle_73" data-name="Rectangle 73" width="30.108" height="33.816" transform="translate(6.749 4.895)" fill="#fff"/>
  <path id="Path_45" data-name="Path 45" d="M33.924,0h-25A8.928,8.928,0,0,0,0,8.927v25a8.928,8.928,0,0,0,8.927,8.927h25a8.927,8.927,0,0,0,8.927-8.927v-25A8.927,8.927,0,0,0,33.924,0ZM25.95,34.978c-.723.139-.953-.305-.953-.686V30.373a3.4,3.4,0,0,0-.982-2.644c3.182-.354,6.524-1.562,6.524-7.047a5.525,5.525,0,0,0-1.469-3.833,5.144,5.144,0,0,0-.141-3.78s-1.2-.384-3.924,1.464a13.513,13.513,0,0,0-7.154,0c-2.728-1.848-3.928-1.464-3.928-1.464a5.14,5.14,0,0,0-.137,3.782,5.522,5.522,0,0,0-1.471,3.833c0,5.471,3.333,6.7,6.508,7.06a3.04,3.04,0,0,0-.907,1.91,3.042,3.042,0,0,1-4.157-1.189,3.006,3.006,0,0,0-2.191-1.473s-1.393-.018-.1.87a3.782,3.782,0,0,1,1.587,2.089s.827,2.55,4.8,1.685V34.29c0,.377-.23.82-.943.687a14.278,14.278,0,1,1,9.038,0Z" transform="translate(0 0)"/>
</svg>
