<svg id="Group_24" data-name="Group 24" xmlns="http://www.w3.org/2000/svg" width="42.851" height="42.852" viewBox="0 0 42.851 42.852">
  <rect id="Rectangle_77" data-name="Rectangle 77" width="30.108" height="33.816" transform="translate(6.749 4.895)" fill="#fff"/>
  <path id="Path_46" data-name="Path 46" d="M27.2,9.8c-1.505-.068-1.959-.082-5.772-.082s-4.266.014-5.771.082c-3.874.177-5.68,2.012-5.855,5.855-.07,1.507-.086,1.959-.086,5.772s.016,4.266.084,5.772c.177,3.835,1.975,5.678,5.855,5.855,1.505.068,1.959.084,5.772.084s4.267-.014,5.772-.082c3.874-.177,5.678-2.016,5.855-5.855.068-1.507.082-1.959.082-5.772s-.014-4.266-.082-5.771C32.876,11.813,31.069,9.975,27.2,9.8ZM21.426,28.76a7.335,7.335,0,1,1,7.335-7.335A7.334,7.334,0,0,1,21.426,28.76Zm7.626-13.245A1.714,1.714,0,1,1,30.766,13.8,1.715,1.715,0,0,1,29.051,15.516Zm-2.864,5.91a4.762,4.762,0,1,1-4.762-4.762A4.762,4.762,0,0,1,26.188,21.426ZM33.924,0h-25A8.928,8.928,0,0,0,0,8.927v25a8.928,8.928,0,0,0,8.927,8.927h25a8.927,8.927,0,0,0,8.927-8.927v-25A8.927,8.927,0,0,0,33.924,0Zm1.7,27.314c-.236,5.194-3.126,8.072-8.308,8.31-1.525.07-2.01.086-5.89.086s-4.364-.016-5.889-.086c-5.192-.237-8.07-3.121-8.31-8.31-.07-1.523-.086-2.009-.086-5.889s.016-4.365.086-5.889c.239-5.192,3.121-8.072,8.31-8.308,1.525-.071,2.009-.087,5.889-.087s4.365.016,5.89.086c5.192.237,8.076,3.126,8.308,8.308.07,1.525.086,2.012.086,5.89S35.693,25.791,35.624,27.314Z" transform="translate(0 0)"/>
</svg>
