<svg id="Group_21" data-name="Group 21" xmlns="http://www.w3.org/2000/svg" width="42.851" height="42.852" viewBox="0 0 42.851 42.852">
  <rect id="Rectangle_71" data-name="Rectangle 71" width="30.108" height="33.816" transform="translate(6.749 4.895)" fill="#fff"/>
  <path id="Path_44" data-name="Path 44" d="M33.924,0h-25A8.928,8.928,0,0,0,0,8.927v25a8.928,8.928,0,0,0,8.927,8.927h25a8.927,8.927,0,0,0,8.927-8.927v-25A8.927,8.927,0,0,0,33.924,0ZM14.284,33.924H8.927V14.284h5.356Zm-2.678-21.9A3.15,3.15,0,1,1,14.73,8.87,3.138,3.138,0,0,1,11.606,12.02Zm24.1,21.9H30.353V23.918c0-6.013-7.142-5.558-7.142,0V33.924H17.855V14.284h5.356v3.151c2.493-4.617,12.5-4.958,12.5,4.421Z"/>
</svg>
