<svg id="Group_7" data-name="Group 7" xmlns="http://www.w3.org/2000/svg" width="93.182" height="74.474" viewBox="0 0 93.182 74.474">
  <path id="Path_5" data-name="Path 5" d="M588.364,272.647c-2.055.3-3.755.577-3.778.6s.118,1.168.31,2.528.525,3.674.732,5.138.569,4.059.813,5.766.769,5.463,1.176,8.354.8,5.648.872,6.136a20.569,20.569,0,0,1,.126,3.216,14.85,14.85,0,0,1-.192,3.4c-.111.591-.318,1.479-.458,1.974-.318,1.1-8.775,22.245-9.263,23.162a6.444,6.444,0,0,1-3.911,3.5c-.244.059-1.264.214-2.284.34-1.826.222-4.229.554-4.65.643l-.222.037.229-.281a14.019,14.019,0,0,0,2.122-4.391,11.283,11.283,0,0,0,.444-3.586,11.016,11.016,0,0,0-.333-3.157l-.067-.266-1.907.48c-1.042.266-1.922.51-1.952.532a3.692,3.692,0,0,0,.17.88,6.55,6.55,0,0,1,.2.858c-.015.015-.651.5-1.427,1.072s-1.412,1.079-1.427,1.109.214.895.5,1.922.517,1.907.517,1.966a7.97,7.97,0,0,1-1.567,1.782,9.507,9.507,0,0,1-4.805,2.2,7.059,7.059,0,0,1-2.462.007,9.715,9.715,0,0,1-2.373-.636l-.525-.222-.5-1.952a6.772,6.772,0,0,0-.621-1.989c-.066-.015-.887-.126-1.826-.236l-1.708-.207-.214-.776c-.214-.776-.214-.784-.436-.776s-3.46.813-3.637.909a8.247,8.247,0,0,0,.976,2.735,13.656,13.656,0,0,0,7.637,6.587l.761.274.244.591c.835,2.07,2.321,3.112,5.071,3.556a41.874,41.874,0,0,0,6.617-.015c4.133-.37,11.289-1.309,12.723-1.671,3.733-.939,6.166-3.467,8.443-8.76.724-1.686,9.759-24.833,9.951-25.49a21.836,21.836,0,0,0,.3-8.391c-.066-.517-.5-3.682-.961-7.038-1.161-8.273-1.161-8.3-2.218-15.858-.5-3.659-.939-6.764-.961-6.9-.037-.214-.067-.237-.281-.229C592.2,272.093,590.419,272.344,588.364,272.647Z" transform="translate(-503.819 -272.084)" fill="#fff"/>
  <path id="Path_6" data-name="Path 6" d="M53.844,373.387c-.569.155-2.063.547-3.327.88s-3.94,1.028-5.951,1.56-4.687,1.235-5.951,1.56-2.706.71-3.216.843-2.469.651-4.362,1.146-4.487,1.176-5.766,1.508-3.379.887-4.657,1.227-2.728.717-3.216.843l-.887.237-.185,1.5-.185,1.5-5.175,2.972C8.119,390.8,5.539,392.3,5.236,392.5a11.113,11.113,0,0,0-1.331,1.146,5.371,5.371,0,0,0-1.567,2.514,5.206,5.206,0,0,0-.17,1.848,7.888,7.888,0,0,0,.14,1.848c.266,1.138.347.954-.88,1.915-.754.591-1.065.88-1.042.961s.54,2.063,1.153,4.443,1.3,5,1.516,5.826.407,1.516.429,1.538.636.2,1.353.4l1.316.347.259.658a9.019,9.019,0,0,0,4.428,4.606,9.345,9.345,0,0,0,2.639.813c1.042.118,10.365.325,12.612.281a23.013,23.013,0,0,0,2.728-.155c2.477-.421,3.933-1.323,4.517-2.787.259-.658.968-3.563,1.952-8.014.51-2.321,1.042-4.65,1.183-5.175s.407-1.641.591-2.469c.651-2.854,1.205-4.236,2.077-5.175,1.39-1.493,3.186-1.427,5.219.207a102.834,102.834,0,0,1,7.2,7.659c3.172,3.6,5.707,6.328,6.2,6.683,1.73,1.242,3.97.931,7.748-1.087.562-.3,2.321-1.308,3.918-2.24s3.844-2.262,5-2.935a10.721,10.721,0,0,0,2.772-1.9,8.76,8.76,0,0,0,2.58-7.474l-.111-.658,1.035-1,1.042-1-.488-1.848c-.266-1.02-.961-3.674-1.545-5.9s-1.072-4.066-1.087-4.081-.6-.126-1.309-.251-1.286-.229-1.3-.244-.14-.392-.288-.835c-1.042-3.142-2.743-4.68-5.67-5.138-.466-.074-7-.192-12.058-.214l-1.087-.007-.9-1.257A5.7,5.7,0,0,0,55,373.1C54.931,373.1,54.413,373.232,53.844,373.387Zm15.059,6.8a5.385,5.385,0,0,1,2.543,1.878,9.438,9.438,0,0,1,1.353,2.558c.421,1.353,2.817,10.564,2.854,11a8.522,8.522,0,0,1-.71,3.659,6.573,6.573,0,0,1-1.309,1.959c-.311.251-8.08,5.1-8.812,5.508a6.941,6.941,0,0,1-3.43.939,4.235,4.235,0,0,1-2.868-.895c-.237-.185-2.4-2.565-5.064-5.574-2.558-2.891-5.722-6.461-7.038-7.947s-2.558-2.942-2.758-3.238c-1.6-2.351-1.538-4.539.155-5.722.931-.651,1.656-.828,6.772-1.678,3.142-.525,4.628-.769,10.5-1.708,1.789-.281,3.822-.614,4.51-.732A7.1,7.1,0,0,1,68.9,380.189ZM32.582,387.6a3.239,3.239,0,0,1,2,2.477,7.9,7.9,0,0,1,.163,2.587c-.1.821-4.532,20.826-4.746,21.4-.71,1.907-2.721,3.112-5.36,3.216-.858.03-9.3-.34-10.35-.458a5.424,5.424,0,0,1-1.959-.85,9.184,9.184,0,0,1-2.8-3.2c-.081-.192-.577-1.989-1.087-3.992s-1.116-4.34-1.338-5.19a10.984,10.984,0,0,1-.628-3.548,6.021,6.021,0,0,1,.591-2.846,5.055,5.055,0,0,1,1.656-1.826c.214-.133,1.294-.577,2.388-.991,5.515-2.07,16.042-5.9,18.09-6.572A5.25,5.25,0,0,1,32.582,387.6Z" transform="translate(-0.385 -365.631)" fill="#fff"/>
  <path id="Path_7" data-name="Path 7" d="M494.915,732.346c-.813.968-1.893,5-3.948,14.7-.325,1.523-.577,2.78-.569,2.794s.547-.111,5.389-1.4c6.387-1.693,7.629-2.018,9.773-2.58,1.264-.333,2.314-.628,2.336-.651.044-.052-3.408-4.029-6.24-7.186-1.8-2-4.317-4.584-5.064-5.182C495.625,732.065,495.248,731.954,494.915,732.346Z" transform="translate(-454.172 -698.116)" fill="#fff"/>
</svg>
