<svg xmlns="http://www.w3.org/2000/svg" width="24" height="20" viewBox="0 0 24 20">
  <g id="Polygon_2" data-name="Polygon 2" transform="translate(24 20) rotate(180)" fill="none">
    <path d="M9.428,4.287a3,3,0,0,1,5.145,0l6.7,11.169A3,3,0,0,1,18.7,20H5.3a3,3,0,0,1-2.572-4.543Z" stroke="none"/>
    <path d="M 12.00000190734863 5.830949783325195 C 12.00000095367432 5.830951690673828 12.00000095367432 5.830953598022461 12 5.830953598022461 L 5.29857063293457 17.00000381469727 L 18.70142936706543 17.00000381469727 L 12.00000953674316 5.830963134765625 C 12.00000762939453 5.830959320068359 12.00000476837158 5.830955505371094 12.00000190734863 5.830949783325195 M 12 2.830947875976562 C 12.99493789672852 2.830947875976562 13.98987483978271 3.31645393371582 14.57248020172119 4.287464141845703 L 21.27391052246094 15.45651435852051 C 22.4736499786377 17.45608329772949 21.03330993652344 20.00000381469727 18.70142936706543 20.00000381469727 L 5.29857063293457 20.00000381469727 C 2.966690063476562 20.00000381469727 1.526350021362305 17.45608329772949 2.726089477539062 15.45651435852051 L 9.427519798278809 4.287464141845703 C 10.01012516021729 3.31645393371582 11.00506210327148 2.830947875976562 12 2.830947875976562 Z" stroke="none" fill="#4c5391"/>
  </g>
</svg>
