<svg xmlns="http://www.w3.org/2000/svg" viewBox="0 0 44.84 51.47"><defs><style>.cls-1{fill:#fff;}</style></defs><title>Asset 5movies</title><g id="Layer_2" data-name="Layer 2"><g id="Layer_1-2" data-name="Layer 1"><path class="cls-1" d="M21.09,41.83l5,6c.78,1,1.85,2,.53,3.14s-2.28-.19-3.08-1.14c-1.93-2.27-3.82-4.57-5.91-7.1l-5.34,6.39c-.43.52-.86,1-1.31,1.54-.69.76-1.65,1.22-2.32.29a2.53,2.53,0,0,1,0-2.36c1.6-2.21,3.43-4.26,5.36-6.6-.76-.07-1.26-.15-1.77-.15H2.9C.35,41.83,0,41.51,0,39v-20c0-2.58.23-2.81,2.8-2.9.24,0,.47-.05,1-.1-2.13-3.19-3.18-6.6-1.37-10A12.59,12.59,0,0,1,6.76,1.33C11.23-1.39,15.58.1,20,5.45c3.49-2.56,7.22-3.15,10.7-.23S34.5,12,32.22,16.09c4.49-.19,2.51,3.19,3.24,5.38,2-1,4-2,6-3,2.51-1.25,3.37-.74,3.37,2q0,8.52,0,17c0,2.67-.86,3.23-3.22,2.08l-6.36-3.14c0,1.23,0,2.18,0,3.12.06,1.63-.72,2.31-2.33,2.3C29.15,41.81,25.38,41.83,21.09,41.83ZM31.9,19.49H3.37v19H31.9ZM4.82,9.84a6.47,6.47,0,0,0,6.47,6.33,6.51,6.51,0,0,0,6.32-6.49,6.42,6.42,0,0,0-6.48-6.29A6.35,6.35,0,0,0,4.82,9.84ZM25.67,6.6a4.75,4.75,0,0,0-4.8,4.73,4.83,4.83,0,0,0,4.73,4.83,4.89,4.89,0,0,0,4.82-4.75A4.82,4.82,0,0,0,25.67,6.6ZM41.55,22.24c-6.31,2.22-6.31,2.22-6.3,8.39a10.17,10.17,0,0,0,0,1.46c.06.32.21.77.46.9,1.85,1,3.73,1.89,5.82,2.93Z"/></g></g></svg>