<svg xmlns="http://www.w3.org/2000/svg" width="74.974" height="72.396" viewBox="0 0 74.974 72.396">
  <g id="Group_10" data-name="Group 10" transform="translate(-1237.949 -446.997)">
    <path id="Path_13" data-name="Path 13" d="M1257.6,475.409q10.473,0,20.946,0,15.688,0,31.375.012c2.036,0,2.988.967,2.99,3.035.01,11.017.028,22.035,0,33.052a7.617,7.617,0,0,1-7.877,7.872q-28.322.025-56.644,0a7.619,7.619,0,0,1-7.927-7.827c-.045-11.017-.127-22.036.061-33.051.05-2.9-.792-5.554-1.192-8.323-.308-2.129-.827-4.227-1.252-6.339-.444-2.206.289-3.346,2.5-3.787q21.241-4.25,42.486-8.484,11.151-2.224,22.3-4.44c2.281-.455,3.329.228,3.774,2.46q1.122,5.635,2.257,11.267c.513,2.542-.161,3.574-2.674,4.076q-25.353,5.065-50.7,10.135c-.145.029-.286.081-.428.122Zm50.115,18.211h-61.994a3.387,3.387,0,0,0-.076.457c0,5.787-.019,11.574.012,17.362.01,1.834,1.059,2.77,3.016,2.771q28.018.011,56.037,0c2.045,0,3-.971,3-3.023.01-3.393,0-6.785,0-10.178C1307.712,498.578,1307.712,496.147,1307.712,493.62Zm-11.688-12.749-.118-.281c-2.656,0-5.319.115-7.965-.04a4.848,4.848,0,0,0-4.157,1.717c-1.868,1.989-3.908,3.816-5.979,5.812.408.185.51.271.612.271,3.108.006,6.215.015,9.323-.012a1.7,1.7,0,0,0,1.09-.331C1291.25,485.651,1293.631,483.255,1296.024,480.871Zm-18.127,0-.147-.3c-3.023,0-6.047.023-9.069-.014a2.471,2.471,0,0,0-2.094.838c-.952,1.072-2,2.061-3.042,3.05-1.232,1.17-2.5,2.3-3.882,3.573a3.624,3.624,0,0,0,.71.3c3.153.007,6.306.014,9.459-.006a1.345,1.345,0,0,0,.863-.3C1273.11,485.654,1275.5,483.261,1277.9,480.874Zm-2.639-22.431c.379.322.565.514.783.66,1.919,1.292,3.916,2.481,5.744,3.891a5.408,5.408,0,0,0,5.179,1.044c2.431-.677,4.947-1.048,7.443-1.555-.067-.2-.069-.3-.119-.335a47.88,47.88,0,0,1-4.844-3.289,7.664,7.664,0,0,0-8.193-1.669A46.643,46.643,0,0,1,1275.258,458.443Zm1.72,7.529c-3.088-2.059-5.89-3.945-8.722-5.786a1.693,1.693,0,0,0-1.122-.107c-2.464.462-4.921.963-7.381,1.451l-2.436.482c3.1,2.07,5.9,3.949,8.72,5.807a1.17,1.17,0,0,0,.782.181C1270.091,467.365,1273.357,466.7,1276.978,465.972Zm-17.011,14.713h-14.272v7.552c3.488.117,7.117,1.044,9.435-2.711a4.83,4.83,0,0,1,.764-.754C1257.2,483.463,1258.506,482.151,1259.966,480.685Zm-1-11.112c-.159-.223-.2-.343-.292-.4q-4.028-2.692-8.068-5.366a1.213,1.213,0,0,0-.76-.253c-2.063.375-4.118.792-6.28,1.218l1.516,7.584Zm48.694,11.006c-.931,0-1.726.065-2.506-.016a2.9,2.9,0,0,0-2.6,1.061c-1.827,1.939-3.753,3.785-5.636,5.671-.262.263-.509.541-.9.957h11.643Zm-3.24-27.972-11.563,2.308c3.144,2.1,5.953,3.973,8.773,5.835a1.019,1.019,0,0,0,.67.148c1.169-.2,2.331-.448,3.646-.709Z" fill="#fff"/>
  </g>
</svg>
