<svg xmlns="http://www.w3.org/2000/svg" width="24" height="20" viewBox="0 0 24 20">
  <g id="Polygon_2" data-name="Polygon 2" transform="translate(24 20) rotate(180)" fill="#fff">
    <path d="M 18.70142936706543 18.50000381469727 L 5.298570156097412 18.50000381469727 C 4.509329795837402 18.50000381469727 4.122819900512695 17.96784400939941 3.993269920349121 17.73905372619629 C 3.863729953765869 17.51025390625 3.60627007484436 16.90503311157227 4.012330055236816 16.2282543182373 L 10.71376037597656 5.059203624725342 C 11.10813999176025 4.401913642883301 11.7446403503418 4.330953598022461 12 4.330953598022461 C 12.2553596496582 4.330953598022461 12.89186000823975 4.401913642883301 13.28623962402344 5.059203624725342 L 19.9876708984375 16.2282543182373 C 20.39373016357422 16.90503311157227 20.13627052307129 17.51025390625 20.00672912597656 17.73905372619629 C 19.8771800994873 17.96784400939941 19.49066925048828 18.50000381469727 18.70142936706543 18.50000381469727 Z" stroke="none"/>
    <path d="M 12.00000190734863 5.830949783325195 C 12.00000095367432 5.830951690673828 12.00000095367432 5.830953598022461 12 5.830953598022461 L 5.29857063293457 17.00000381469727 L 18.70142936706543 17.00000381469727 L 12.00000953674316 5.830963134765625 C 12.00000762939453 5.830959320068359 12.00000476837158 5.830955505371094 12.00000190734863 5.830949783325195 M 12 2.830947875976562 C 12.99493789672852 2.830947875976562 13.98987483978271 3.31645393371582 14.57248020172119 4.287464141845703 L 21.27391052246094 15.45651435852051 C 22.4736499786377 17.45608329772949 21.03330993652344 20.00000381469727 18.70142936706543 20.00000381469727 L 5.29857063293457 20.00000381469727 C 2.966690063476562 20.00000381469727 1.526350021362305 17.45608329772949 2.726089477539062 15.45651435852051 L 9.427519798278809 4.287464141845703 C 10.01012516021729 3.31645393371582 11.00506210327148 2.830947875976562 12 2.830947875976562 Z" stroke="none" fill="#4c5391"/>
  </g>
</svg>
