<svg xmlns="http://www.w3.org/2000/svg" width="95.71" height="95.71" viewBox="0 0 95.71 95.71">
  <g id="Group_6" data-name="Group 6" transform="translate(0 78.547) rotate(-45)">
    <path id="Path_2" data-name="Path 2" d="M0,2.516C2.014-.322,3.188-.631,6.117,1.11A22.766,22.766,0,0,0,17.843,4.364q37.6.084,75.205.007A22.964,22.964,0,0,0,105,1.041c2.858-1.718,4.157-1.365,6.086,1.475V4.491c-2.66,1.646-5.155,3.724-8.025,4.823-3.15,1.208-6.644,1.514-10.44,2.307a14.426,14.426,0,0,0,1.41,1.907c2.853,2.778,3.059,6.358.461,8.918a5.969,5.969,0,0,1-8.591-.187c-2.378-2.535-2.115-6.185.624-8.765a15.034,15.034,0,0,0,1.157-1.216c.077-.09,0-.313-.022-.738H22.829c.9,1.048,1.476,1.774,2.113,2.439a6.052,6.052,0,0,1,1.352,6.787,5.939,5.939,0,0,1-5.977,3.484,6.054,6.054,0,0,1-5.309-4.468c-.671-2.4.238-4.318,1.912-6,.577-.581,1.037-1.276,1.848-2.292A51.888,51.888,0,0,1,11.761,10.4,76.458,76.458,0,0,1,2.638,6.927C1.6,6.465.87,5.322,0,4.491Z" transform="translate(0 0)" fill="#fff"/>
  </g>
</svg>
