<svg xmlns="http://www.w3.org/2000/svg" width="88.876" height="88.89" viewBox="0 0 88.876 88.89">
  <g id="Group_8" data-name="Group 8" transform="translate(-544.403 -337.43)">
    <path id="Path_8" data-name="Path 8" d="M588.8,337.43a44.445,44.445,0,1,1-44.393,45.153A44.585,44.585,0,0,1,588.8,337.43ZM582.125,398.3c-.394,2.59-.809,4.977-2.911,6.634a2.223,2.223,0,0,0-1.089,2.309,2.694,2.694,0,0,1-1.416,2.991c-1.579,1.063-3.174,2.1-4.7,3.244a6.62,6.62,0,0,0-1.417,1.672c-.327.49-.15.855.436,1.153a37.373,37.373,0,0,0,28.1,2.912c13.2-3.8,21.991-12.44,26.613-25.384.715-2,.64-3.623-1-5.056a4.28,4.28,0,0,1-.584-.73c-.4-.545-.6-1.083.178-1.479-1.953-1.945-4.388-1.795-6.75-1.831a4.52,4.52,0,0,0-1.428.493c.181.441.363.882.54,1.324.022.055.019.121.012.075l-3.8,3.775c-.791-.686-1.575-1.453-2.454-2.087a3.964,3.964,0,0,0-1.406-.344c-.871-1.348-1.853-2.812-2.771-4.316a10.684,10.684,0,0,1-.927-2.027,3.534,3.534,0,0,1-.02-1.113l.326-.106c.417.632.81,1.281,1.262,1.887.152.2.508.466.679.412,1.774-.562,3.53-1.183,5.375-1.816l-1.794-3.588c-1.341.564-2.6,1.074-3.838,1.619s-2.471,1.152-3.723,1.69a5.288,5.288,0,0,1-1.334.334c-.658.095-.978-.184-.938-.9.072-1.277.055-2.559.145-3.834a1.524,1.524,0,0,0-1.1-1.725,2.415,2.415,0,0,0-2.952.783,42.039,42.039,0,0,0-2.241,3.631h-1.54a19.691,19.691,0,0,0,1.455-1.4.856.856,0,0,0,.154-.767,8.441,8.441,0,0,0-1.22-1.283c-.125-.113-.486-.181-.555-.1-.8.885-2.138,1.46-1.789,3.027a2.673,2.673,0,0,1-.032.633l-5.662.6a2.463,2.463,0,0,1,.566-2.367,4.637,4.637,0,0,0,1.23-3.348,1.874,1.874,0,0,1,1.543-2.047c1.211-.264,2.455-.375,3.682-.568.28-.044.652-.067.807-.249a10.8,10.8,0,0,1,4.428-3.047,1.92,1.92,0,0,0,1.338-2.1c-.031-.742-.093-1.482-.15-2.358a34.25,34.25,0,0,1,4.167.03,10.144,10.144,0,0,0,6.533-1.452c2.857-1.651,4.674-4.358,6.938-6.609-16.423-17.81-44.628-15.716-58.42,2.234a5.786,5.786,0,0,1,2.136,3.52c.152.571.092,1.19-.693,1.269-.878.088-1.167.647-1.408,1.391-.153.473-.458,1.128-.84,1.25-.968.311-1.018.937-.954,1.727a7.261,7.261,0,0,1,0,1.031,2.918,2.918,0,0,0,1.341,2.941,5.464,5.464,0,0,0,5.6.743,1.089,1.089,0,0,0,.85-1.328,1.56,1.56,0,0,1,.36-1.233,11.623,11.623,0,0,1,2.733-1.557,1.907,1.907,0,0,1,2.6,1.306,11.13,11.13,0,0,0,.881,1.955c.995,1.506,2.051,2.974,3.124,4.426.617.835.506,1.347-.473,1.677a1.965,1.965,0,0,1-.549.113,2.342,2.342,0,0,0-2.133,1.582,11.448,11.448,0,0,0-.641,2.037c-.242,1.052-.667,1.383-1.725,1.149-.638-.141-1.263-.35-1.887-.55a3.846,3.846,0,0,0-3.631.552,7.812,7.812,0,0,1-2.425,1.131c-1.03.281-1.911.594-2.089,1.892l-3.915-1.912c.395,3.373.087,6.157-4.253,5.906A39.217,39.217,0,0,0,566.3,413.41c.422-1.9.851-3.589,1.156-5.3.133-.748.2-1.716-.733-2.023-1.551-.514-2.209-1.769-2.828-3.064-1.2-2.5-2.46-4.988-3.467-7.57a7.083,7.083,0,0,0-4.148-4.264c-1.51-.616-1.488-.74-1.157-2.544h.991c2.937,0,5.875-.032,8.812,0a8.639,8.639,0,0,0,3.644-.648c1.229-.534,1.657-.23,1.957,1.081a3.872,3.872,0,0,0,3.272,3.281c1.136.2,1.417.523,1.479,1.688.046.872-.013,1.751.045,2.622.085,1.266.509,1.632,1.772,1.634C578.712,398.3,580.33,398.3,582.125,398.3Z" transform="translate(0)" fill="#fff"/>
    <path id="Path_9" data-name="Path 9" d="M786.994,591.309a6.492,6.492,0,0,1-3.524,1.975c-1.191.257-1.293.573-.568,1.564a7.229,7.229,0,0,1,1.051,5.19,1.109,1.109,0,0,1-.69.734c-.666.186-1.049.475-1.021,1.218a.83.83,0,0,1-.923.94c-1.208-.012-1.681.751-1.771,1.768-.139,1.583-.226,3.176-.22,4.764,0,.921-.257,1.187-1.211,1.229a5.019,5.019,0,0,1-4.326-1.567c-1.2-1.292-2.184-2.435-2.352-4.358a69.375,69.375,0,0,0-1.415-7.056c-.194-1-.243-2.027-.332-2.812-1.938.1-3.821.253-5.706.286a3.278,3.278,0,0,1-3.418-2.411,12.346,12.346,0,0,0-3.162-5.105c-1.442-1.446-1.5-2.687-.336-4.365a36.647,36.647,0,0,1,2.514-3.135,1.43,1.43,0,0,1,.971-.395c4.686-.025,9.372-.009,14.058-.024.635,0,.979.221.879.868a2.5,2.5,0,0,0,1.191,2.484,13.7,13.7,0,0,1,4.109,5.251,3.328,3.328,0,0,0,1.637,1.382C783.882,590.343,785.409,590.775,786.994,591.309Z" transform="translate(-172.124 -196.877)" fill="#fff"/>
    <path id="Path_10" data-name="Path 10" d="M664.132,420.41a29.393,29.393,0,0,0,2.384-2.223c.807-.921,1.45-1.984,2.2-2.962a.967.967,0,0,1,.647-.364c1.31-.019,2.625-.036,3.932.044a6.5,6.5,0,0,1,3.755,1.756q1.9,1.593,3.72,3.282c.887.824.772,1.834-.358,2.2a12.038,12.038,0,0,0-3.839,2,3.757,3.757,0,0,1-1.983.318c-.8.034-1.286.276-1.063,1.174a4.093,4.093,0,0,1-1.745,4.56,17.552,17.552,0,0,0-1.538,1.506.7.7,0,0,1-1.122-.008,3.524,3.524,0,0,1-1.375-3.1c.263-2.546-.994-4.642-2.173-6.73A8.045,8.045,0,0,0,664.132,420.41Z" transform="translate(-97.276 -62.897)" fill="#fff"/>
    <path id="Path_11" data-name="Path 11" d="M808.777,459.919l1.474-3.265.16,0c.024.29.068.581.069.871.006.968-.009,1.936,0,2.9.01,2.122.013,2.122-1.87,3.62.121-.5.19-.871.3-1.227.163-.533.025-.729-.534-.544a1.815,1.815,0,0,1-.457.082c-1.261.077-1.692-.339-1.312-1.534.429-1.351,1.061-2.637,1.605-3.952l.3.06V459.9Z" transform="translate(-212.92 -96.866)" fill="#fff"/>
    <path id="Path_12" data-name="Path 12" d="M778.8,497.953c.46,2.276.086,2.815-2.341,3.53-.256-1.433-.119-1.673,1.095-2.421A9.7,9.7,0,0,0,778.8,497.953Z" transform="translate(-188.448 -130.42)" fill="#fff"/>
  </g>
</svg>
