<svg xmlns="http://www.w3.org/2000/svg" width="79.594" height="79.677" viewBox="0 0 79.594 79.677">
  <path id="Path_3" data-name="Path 3" d="M382.78,754.842a4.894,4.894,0,0,1-3.2-4.625,43.943,43.943,0,0,1,.4-5.82,3.227,3.227,0,0,0-3.164-3.7c-3.352-.037-6.7-.007-10.056-.011-.358,0-.716-.044-1.344-.086a4.229,4.229,0,0,1,3.546-2.9,38.927,38.927,0,0,1,6.707.222A3.231,3.231,0,0,0,379.5,734.7c.039-3.654.048-7.309.074-10.963,0-.046.059-.092.234-.349,4.222,2.572,2.707,6.613,2.585,10.607a25.375,25.375,0,0,0,6.748-7.686,2.359,2.359,0,0,0,.019-1.4,50.463,50.463,0,0,1,.208-19.256,2.844,2.844,0,0,0-.1-1.759,24.817,24.817,0,0,0-6.46-7.59v10.33a4.73,4.73,0,0,1-3.221-4.48,43.721,43.721,0,0,1,.4-6,3.139,3.139,0,0,0-3.066-3.6c-3.474-.038-6.948-.01-10.422-.016-.286,0-.572-.051-.882-.081,1.074-3.186,3.048-3.585,11.773-2.512,2.049-1.5,2.252-3.555,2.148-5.83-.132-2.9-.032-5.806-.032-8.948a4.98,4.98,0,0,1,3.212,4.871,35.348,35.348,0,0,1-.441,5.453,3.128,3.128,0,0,0,3.269,3.755c3.352.021,6.7.008,10.056.02.339,0,.678.079,1.316.158-2.735,4.345-6.7,2.862-10.7,2.744a16.728,16.728,0,0,0,1.341,1.623c1.476,1.359,2.95,2.726,4.5,4a7.289,7.289,0,0,0,6.411,1.634,44.4,44.4,0,0,1,14.742.085,4.969,4.969,0,0,0,3.244-.593c2.542-1.726,4.9-3.721,7.33-5.612l-.277-.627H413.5a4.666,4.666,0,0,1,4.1-3.253,25.486,25.486,0,0,1,5.275.18c3.734.5,4.816-.4,4.817-4.288,0-3.285,0-6.57,0-9.89,3.168.882,3.561,2.8,2.55,11.764a5.984,5.984,0,0,0,5.452,2.106c3.026-.18,6.071-.045,9.273-.045a3.973,3.973,0,0,1-3.49,3,34.2,34.2,0,0,1-6.527-.188c-2.5-.281-3.947.835-3.962,3.423-.019,3.291-.005,6.582-.012,9.873,0,.343-.041.685-.066,1.064-2.986-1.034-3.4-2.544-2.881-10.484A25.916,25.916,0,0,0,421,704.18a2.445,2.445,0,0,0,.055,1.411,51.954,51.954,0,0,1,.261,19.083,3.636,3.636,0,0,0,.523,2.528c1.638,2.193,3.468,4.243,5.225,6.348l.578-.352v-9.817a4.075,4.075,0,0,1,3.058,3.684,42.537,42.537,0,0,1-.291,6.711,3.139,3.139,0,0,0,3.1,3.625c3.169.039,6.339.01,9.508.009h2a4.39,4.39,0,0,1-4.054,3.124,44.406,44.406,0,0,1-6.359-.348,3.185,3.185,0,0,0-3.607,3.081c-.04,3.474-.012,6.948-.019,10.422,0,.291-.049.582-.093,1.063a4.371,4.371,0,0,1-3.042-4.014,34.26,34.26,0,0,1,.3-6c.314-2.534-.9-4.032-3.531-4.043-3.169-.012-6.339,0-9.508,0-.418,0-.837-.057-1.429-.1a4.725,4.725,0,0,1,4.576-3.1,58.226,58.226,0,0,1,5.946.272,24.565,24.565,0,0,0-6.787-6.19,2.763,2.763,0,0,0-1.753-.023,51.487,51.487,0,0,1-20.873.028,3.479,3.479,0,0,0-2.5.507c-1.928,1.452-3.7,3.115-5.529,4.7l.186.515H396.8a4.207,4.207,0,0,1-3.855,3.22,25.05,25.05,0,0,1-5.453-.165c-3.624-.482-4.717.418-4.716,4.188q0,4.114,0,8.228ZM405.3,712.01a2.447,2.447,0,0,0-2.532,2.33,2.416,2.416,0,0,0,2.28,2.56,2.457,2.457,0,0,0,2.645-2.393A2.543,2.543,0,0,0,405.3,712.01Zm24.044-23.218c-.7.942-1.477,1.534-1.4,1.985a2.215,2.215,0,0,0,1.383,1.463c.347.091,1.331-.79,1.344-1.255C430.682,690.406,430,689.806,429.341,688.792ZM383.2,690.92c-.975-.724-1.582-1.5-2-1.41-.592.127-1.045.9-1.558,1.393.46.476.9,1.308,1.386,1.334C381.582,692.268,382.176,691.583,383.2,690.92ZM431.344,739c-.924-.639-1.541-1.385-1.98-1.291-.582.124-1.026.9-1.529,1.4.534.473,1.023,1.231,1.618,1.326C429.889,740.506,430.465,739.707,431.344,739Zm-48.079-.016c-1.121-.661-1.744-1.321-2.3-1.268a1.361,1.361,0,0,0,.1,2.714C381.625,740.443,382.2,739.733,383.265,738.986Zm23.559-17.879c-.665-.538-1.147-1.207-1.5-1.144-.494.09-.889.721-1.326,1.121.431.406.816,1.043,1.307,1.139C405.657,722.291,406.15,721.632,406.823,721.107Z" transform="translate(-365.417 -675.165)" fill="#fff"/>
</svg>
