<svg xmlns="http://www.w3.org/2000/svg" viewBox="0 0 59.65 65.93"><defs><style>.cls-1{fill:#fff;}</style></defs><title>Asset 6music</title><g id="Layer_2" data-name="Layer 2"><g id="Layer_1-2" data-name="Layer 1"><path class="cls-1" d="M29.69,50.48V23.24c0-1.56.29-1.93,1.76-2.32L57.16,14l.47-.12a1.53,1.53,0,0,1,2,1.57c0,1.21,0,2.42,0,3.64,0,9.58.05,19.17,0,28.76A8.43,8.43,0,0,1,55,55.5a9.66,9.66,0,0,1-10.49-.1c-4.66-2.93-5-9.26-.72-13.06a10.25,10.25,0,0,1,12.51-1,1.55,1.55,0,0,0,.28.12V17.41L32.81,23.77v.77c0,10.73,0,21.47,0,32.2a8.54,8.54,0,0,1-4.56,7.64,9.83,9.83,0,0,1-9.66.53,8,8,0,0,1-3-12.17,10.25,10.25,0,0,1,13.56-2.57Z"/><path class="cls-1" d="M11.84,26.62v-.88q0-11.91,0-23.82a1.69,1.69,0,0,1,1-1.8c.8-.33,1.37.06,1.95.59C17.28,3,19.85,5.25,22.38,7.54a32.93,32.93,0,0,1,6.23,7,3.32,3.32,0,0,1,.46,1.06,1.53,1.53,0,0,1-2.79,1A27.27,27.27,0,0,0,21,10.51c-1.89-1.74-3.83-3.41-5.75-5.1A1.66,1.66,0,0,0,15,5.24V6Q15,19,15,31.86a7.26,7.26,0,0,1-4.71,6.79,7.82,7.82,0,0,1-8.43-1.48,6.5,6.5,0,0,1,1-9.82,8,8,0,0,1,8.48-1Z"/></g></g></svg>