<svg xmlns="http://www.w3.org/2000/svg" viewBox="0 0 49.39 69.77"><defs><style>.cls-1{fill:#fff;}</style></defs><title>Asset 2skate</title><g id="Layer_2" data-name="Layer 2"><g id="Layer_1-2" data-name="Layer 1"><path class="cls-1" d="M24.24,44.65c-1-.93-2.07-1.85-3.06-2.84-2.22-2.22-4.4-4.48-6.6-6.73a6.5,6.5,0,0,1-1.11-8.36c1.58-2.86,3.14-5.71,4.71-8.57.12-.2.22-.41.37-.72h-.83c-4.21,0-8.42,0-12.62,0A3,3,0,0,1,2,14.5a2.88,2.88,0,0,1,3.1-2.87q20.66,0,41.3,0a2.85,2.85,0,0,1,3,2.48,2.89,2.89,0,0,1-2.06,3.23,4.07,4.07,0,0,1-1,.1c-5,0-9.93,0-14.9,0a1,1,0,0,0-1,.62q-3.46,6.3-7,12.57a.71.71,0,0,0,.12,1c2.41,2.41,4.79,4.84,7.18,7.27a4.75,4.75,0,0,1,.88,6.3L25.1,57a3.29,3.29,0,0,1-4.51,1.51,3.45,3.45,0,0,1-1.4-4.71C20.8,50.82,22.46,47.87,24.24,44.65Z"/><path class="cls-1" d="M12.87,36.12l4.94,4.53-1.69,3q-4.86,8.61-9.73,17.2c-1.06,1.9-2.94,2.56-4.64,1.62a3.49,3.49,0,0,1-1.19-5L10.78,39.76C11.51,38.5,12.24,37.23,12.87,36.12Z"/><path class="cls-1" d="M23.54,5.33A5.24,5.24,0,1,1,34,5.4a5.24,5.24,0,1,1-10.47-.07Z"/><path class="cls-1" d="M24,64H11.91c-1,0-1.65-.47-1.73-1.29a1.4,1.4,0,0,1,1.11-1.58,4.9,4.9,0,0,1,.77-.06H35.82a4.56,4.56,0,0,1,.64,0,1.45,1.45,0,0,1,0,2.89,5.56,5.56,0,0,1-.71,0Z"/><path class="cls-1" d="M30.21,67.66a1.94,1.94,0,0,1,1.94-2,2,2,0,0,1,2,2,2,2,0,0,1-2,2A2,2,0,0,1,30.21,67.66Z"/><path class="cls-1" d="M18.19,67.72a2,2,0,1,1-2-2A2,2,0,0,1,18.19,67.72Z"/></g></g></svg>