<svg id="Group_33" data-name="Group 33" xmlns="http://www.w3.org/2000/svg" width="28.1" height="28.051" viewBox="0 0 28.1 28.051">
  <path id="Path_37" data-name="Path 37" d="M833.1-163.267v18.659a.194.194,0,0,0-.026.055,3.056,3.056,0,0,1-2.952,2.514c-7.364-.022-14.729-.01-22.093-.01a3.47,3.47,0,0,1-.378-.007,3.128,3.128,0,0,1-2.574-2.234c-.027-.105-.051-.212-.076-.318v-22.827c.008-.013.021-.026.023-.04a2.973,2.973,0,0,1,1.039-1.856,2.641,2.641,0,0,1,1.774-.753q9.1-.009,18.2-.006a1.849,1.849,0,0,1,1.361.59q2.552,2.56,5.11,5.114a3.723,3.723,0,0,1,.249.284A2.022,2.022,0,0,1,833.1-163.267Zm-7.9-4.8H807.943a1.008,1.008,0,0,0-.265.029.883.883,0,0,0-.661.937q0,3.733,0,7.466,0,7.34,0,14.679a.884.884,0,0,0,.969.972q11.1,0,22.194,0a1.231,1.231,0,0,0,.312-.037.9.9,0,0,0,.644-.967q0-8.508,0-17.016v-.184h-.2c-1.01,0-2.021,0-3.031,0a3.788,3.788,0,0,1-.534-.039,2.608,2.608,0,0,1-2.154-2.371c-.032-1.088-.014-2.178-.017-3.267C825.2-167.928,825.2-167.989,825.2-168.065Zm4.957,3.975-3.085-3.031c0,.729-.02,1.418.007,2.105a1.017,1.017,0,0,0,.962.923C828.724-164.082,829.413-164.09,830.153-164.09Z" transform="translate(-805 170.089)" fill="#fff"/>
  <path id="Path_38" data-name="Path 38" d="M936.33-12.695q-1.531,0-3.062,0a.861.861,0,0,1-.9-.619,1.184,1.184,0,0,1-.047-.356q0-2.533,0-5.066a.891.891,0,0,1,.974-.984c.494,0,.989,0,1.483,0q2.281,0,4.561,0a.893.893,0,0,1,.908.5,1.129,1.129,0,0,1,.09.457q.009,2.554,0,5.108a.884.884,0,0,1-.975.964Zm-2.012-2h4.008v-3.041h-4.008Z" transform="translate(-928.297 24.47)" fill="#fff"/>
  <path id="Path_39" data-name="Path 39" d="M942.485,378.916q4.467,0,8.935,0a1.046,1.046,0,0,1,1.017.585,1.032,1.032,0,0,1-.892,1.5c-1.689.01-3.378,0-5.067,0h-12.9a1.054,1.054,0,0,1-1.114-.764,1.042,1.042,0,0,1,.909-1.317c.078-.006.158,0,.237,0Z" transform="translate(-928.404 -361.58)" fill="#fff"/>
  <path id="Path_40" data-name="Path 40" d="M942.474,501.8c2.989,0,5.977,0,8.965,0a1.066,1.066,0,0,1,1.089,1.047,1.043,1.043,0,0,1-.9,1.02,2.227,2.227,0,0,1-.283.018h-17.8a1.045,1.045,0,0,1-.193-2.08c.079,0,.158,0,.237,0Z" transform="translate(-928.379 -480.586)" fill="#fff"/>
  <path id="Path_41" data-name="Path 41" d="M942.318,258.382c-2.973,0-5.945-.005-8.918,0a1.068,1.068,0,0,1-1.087-.7,1.04,1.04,0,0,1,1.028-1.385q2.612,0,5.224,0h12.721a1.049,1.049,0,0,1,1.094,1.059,1.029,1.029,0,0,1-1,1.015c-.868.01-1.736,0-2.6,0Z" transform="translate(-928.232 -242.84)" fill="#fff"/>
  <path id="Path_42" data-name="Path 42" d="M1252.607,135.163h-1.562a1.034,1.034,0,0,1-1.069-.961,1.023,1.023,0,0,1,1.009-1.117c1.087-.02,2.175-.016,3.262,0a1.04,1.04,0,0,1-.061,2.079C1253.659,135.165,1253.133,135.163,1252.607,135.163Z" transform="translate(-1235.926 -123.5)" fill="#fff"/>
  <path id="Path_43" data-name="Path 43" d="M1252.512,10.816c.521,0,1.041,0,1.561,0a1.041,1.041,0,0,1,1.069,1.031,1.053,1.053,0,0,1-1.069,1.053q-1.561,0-3.123,0a1.04,1.04,0,0,1-1.014-.707,1.024,1.024,0,0,1,.352-1.168.967.967,0,0,1,.615-.209Z" transform="translate(-1235.831 -5.104)" fill="#fff"/>
</svg>
